<svg width="10" height="8" viewBox="0 0 10 8" fill="none" xmlns="http://www.w3.org/2000/svg"><path d="M1.26 6.76h1.4V1.92l.1-.59-.4.47-1.1.79-.38-.51 2.2-1.7h.36v6.38h1.37v.74H1.26v-.74ZM9.1 2.09c0 .35-.06.72-.2 1.09-.12.37-.3.74-.5 1.11-.21.37-.45.74-.7 1.1L6.9 6.4l-.49.43v.04l.64-.11h2.18v.74H5.25v-.29a33.38 33.38 0 0 0 1.17-1.32 15.12 15.12 0 0 0 1.25-1.83c.18-.32.33-.64.43-.95.11-.31.16-.61.16-.89 0-.33-.09-.6-.28-.81-.18-.22-.47-.33-.85-.33-.25 0-.5.05-.74.16-.24.1-.44.22-.62.35l-.33-.57c.24-.2.51-.36.83-.47C6.6.44 6.94.38 7.3.38c.29 0 .54.04.76.13a1.5 1.5 0 0 1 .91.9c.08.2.12.43.12.68Z" fill="#fff"/></svg>